<?xml version="1.0" encoding="utf-8"?>
<!-- Generator: Adobe Illustrator 16.0.0, SVG Export Plug-In . SVG Version: 6.00 Build 0)  -->
<!DOCTYPE svg PUBLIC "-//W3C//DTD SVG 1.1//EN" "http://www.w3.org/Graphics/SVG/1.1/DTD/svg11.dtd">
<svg version="1.1" id="Laag_1" xmlns="http://www.w3.org/2000/svg" xmlns:xlink="http://www.w3.org/1999/xlink" x="0px" y="0px"
	 width="100px" height="100px" viewBox="0 0 100 100" enable-background="new 0 0 100 100" xml:space="preserve">
<g>
	<path fill="#1C4147" d="M99.48,100.98c-0.38,0-0.77-0.15-1.06-0.44L-0.51,1.61c-0.59-0.59-0.59-1.54,0-2.12
		c0.59-0.59,1.54-0.59,2.12,0l98.94,98.94c0.59,0.59,0.59,1.54,0,2.12C100.25,100.84,99.87,100.98,99.48,100.98z"/>
</g>
<g>
	<path fill="#1C4147" d="M0.55,100.98c-0.38,0-0.77-0.15-1.06-0.44c-0.59-0.59-0.59-1.54,0-2.12L98.42-0.51
		c0.59-0.59,1.54-0.59,2.12,0c0.59,0.59,0.59,1.54,0,2.12L1.61,100.54C1.31,100.84,0.93,100.98,0.55,100.98z"/>
</g>
<g>
</g>
<g>
</g>
<g>
</g>
<g>
</g>
<g>
</g>
<g>
</g>
</svg>
