<?xml version="1.0" encoding="utf-8"?>
<!-- Generator: Adobe Illustrator 16.0.0, SVG Export Plug-In . SVG Version: 6.00 Build 0)  -->
<!DOCTYPE svg PUBLIC "-//W3C//DTD SVG 1.1//EN" "http://www.w3.org/Graphics/SVG/1.1/DTD/svg11.dtd">
<svg version="1.1" id="Laag_1" xmlns="http://www.w3.org/2000/svg" xmlns:xlink="http://www.w3.org/1999/xlink" x="0px" y="0px"
	 width="120.1753px" height="45.7988px" viewBox="0 0 120.1753 45.7988" enable-background="new 0 0 120.1753 45.7988"
	 xml:space="preserve">
<g>
	<path fill="#EF7916" d="M72.4507,11.4478c-0.0918,2.3716,0.2109,5.2998-0.1367,8.2061c-0.4473,3.7612-2.3008,6.6919-5.4902,8.7573
		c-2.7031,1.751-5.6738,2.333-8.8047,1.7305c-3.1401-0.6045-5.7261-2.1895-7.6201-4.8447
		c-1.6216-2.2725-2.3286-4.7881-2.3145-7.5591c0.0249-4.8496,0.0225-9.6997-0.0107-14.5493
		c-0.0049-0.6953,0.2212-0.7905,0.8218-0.7051c1.2935,0.1831,2.4922,0.6563,3.7061,1.0977c0.459,0.167,0.3965,0.5195,0.3965,0.8711
		c-0.0005,4.1133-0.0015,8.2271,0,12.3403c0.001,1.7207,0.3032,3.374,1.0713,4.9312c1.2793,2.5938,4.2847,4.0186,7.3521,3.5508
		c3.6484-0.5566,5.7617-3.3008,5.9902-7.0786c0.1973-3.2134,0.0703-6.4463,0.082-9.6704c0.0059-1.397,0.0059-2.7935-0.002-4.1899
		c-0.002-0.3242,0.0234-0.5938,0.3867-0.7314c1.2539-0.478,2.5-0.9648,3.8516-1.1299c0.5605-0.0688,0.7441,0.0537,0.7363,0.6587
		C72.4312,5.7217,72.4507,8.312,72.4507,11.4478z"/>
	<path fill="#E50413" d="M54.5635,4.7808c1.3545,1.0728,2.4209,2.1899,3.2192,3.5557c1.2451,2.1299,1.8042,4.417,1.752,6.8887
		c-0.0557,2.6128-0.0127,5.2275-0.0127,7.8418c0,0.2485,0,0.4966,0,0.7583c-2.6802-0.6523-4.4058-2.1841-4.7251-5.2524
		c-0.4287-4.1265-0.1533-8.2646-0.2319-12.3975C54.5566,5.7539,54.5635,5.3315,54.5635,4.7808z"/>
	<path fill="#E50211" d="M65.9116,4.7666c0,2.4097,0.0215,4.6338-0.0059,6.8569c-0.0313,2.5063,0.1328,5.0151-0.2637,7.5161
		c-0.3809,2.4102-1.8633,3.7651-4.0234,4.5693c-0.4297,0.1602-0.6348,0.1328-0.6309-0.4204
		c0.0273-3.0684-0.0391-6.1387,0.0469-9.2051c0.0957-3.4302,1.5137-6.2881,4.0703-8.5781
		C65.3296,5.3047,65.5503,5.0986,65.9116,4.7666z"/>
	<path fill="#043A44" d="M60.208,8.5586c-0.8291-1.6563-1.9487-3.0635-3.3486-4.2373c-0.2417-0.2026-0.1353-0.3301-0.0303-0.5024
		c0.8237-1.3525,1.9038-2.4741,3.1226-3.4727c0.2505-0.2046,0.4556-0.1353,0.6709,0.0454c1.166,0.9775,2.248,2.0293,3.0137,3.3652
		c0.1094,0.1914,0.2988,0.3242,0.0156,0.5645c-1.3418,1.1387-2.4258,2.4912-3.2476,4.0503
		C60.3716,8.4341,60.2983,8.4746,60.208,8.5586z"/>
</g>
<g>
	<g>
		<path fill="#043A44" d="M108.769,41.5078c0,1.127,0.0039,2.2539-0.002,3.3809c-0.002,0.5908-0.1504,0.7441-0.6875,0.7471
			c-0.541,0.001-0.7031-0.1514-0.7051-0.7314c-0.0039-2.0137-0.002-4.0273-0.002-6.04c0-0.2744,0-0.5479-0.0313-0.8203
			c-0.127-1.1787-1.1094-2.042-2.2676-2.001c-1.1816,0.04-2.1094,0.9336-2.1289,2.1357c-0.0293,2.0293-0.0098,4.0586-0.0137,6.0869
			c0,0.1768,0.002,0.3545,0,0.5322c-0.0098,0.6758-0.1465,0.8379-0.7051,0.8389c-0.5684,0.001-0.7129-0.1582-0.7129-0.8223
			c-0.0039-2.1572,0.0117-4.3154-0.0078-6.4736c-0.0156-1.5254-1.291-2.5635-2.7109-2.2393
			c-1.0391,0.2383-1.7227,1.1133-1.7285,2.2656c-0.0117,2.1748-0.002,4.3486-0.0078,6.5234
			c-0.002,0.6074-0.1895,0.7666-0.7871,0.748c-0.4238-0.0137-0.6191-0.2207-0.6211-0.6309
			c-0.002-0.5645-0.0039-1.1289-0.0039-1.6914c0-1.6592-0.0273-3.3174,0.0098-4.9756c0.0566-2.5283,2.2559-4.2158,4.6094-3.5674
			c0.6523,0.1797,1.2109,0.5244,1.6602,1.0273c0.2031,0.2266,0.332,0.2666,0.5723,0.0225c1.1699-1.1807,2.668-1.5225,4.0605-0.8965
			c1.4863,0.6699,2.209,1.8594,2.2109,3.4873C108.771,39.4463,108.769,40.4766,108.769,41.5078z"/>
		<path fill="#043A44" d="M10.0679,42.5762c0-0.7246-0.0195-1.4492,0.0039-2.1738c0.0444-1.3467,0.6509-2.3652,1.9097-2.8828
			c1.2432-0.5117,2.4414-0.3584,3.4722,0.5508c0.2769,0.2461,0.4155,0.2588,0.6982,0.0029c0.9922-0.8945,2.1626-1.04,3.3843-0.6016
			c1.186,0.4248,1.8687,1.3281,1.9678,2.5762c0.1323,1.6689,0.043,3.3477,0.0396,5.0225c0,0.4717-0.3198,0.5703-0.7231,0.5684
			c-0.4229-0.002-0.6807-0.1563-0.6807-0.6172c0-1.5146,0.0107-3.0283-0.0103-4.542c-0.0151-1.125-0.7964-1.8555-1.8853-1.8076
			c-1.0195,0.0449-1.6958,0.7275-1.71,1.7803c-0.0195,1.4824-0.0029,2.9648-0.0122,4.4463
			c-0.0029,0.5645-0.1567,0.7217-0.6572,0.7373c-0.5757,0.0166-0.7524-0.1445-0.7549-0.7295
			c-0.0068-1.4834,0.0137-2.9658-0.0127-4.4473c-0.0225-1.2246-0.9912-1.9766-2.1938-1.7471
			c-0.8496,0.1602-1.3838,0.7832-1.3979,1.7139c-0.022,1.4971-0.0054,2.9951-0.0166,4.4932
			c-0.0039,0.5674-0.1768,0.7217-0.7251,0.7178c-0.5313-0.0049-0.6899-0.1523-0.6958-0.6924
			c-0.0083-0.7891-0.0029-1.5791-0.0029-2.3682C10.0659,42.5762,10.0669,42.5762,10.0679,42.5762z"/>
		<path fill="#043A44" d="M80.0815,42.5752c0,0.8057,0.0078,1.6113-0.0039,2.416c-0.0078,0.502-0.1719,0.6445-0.6875,0.6445
			c-0.5137,0-0.6895-0.1484-0.6914-0.6455c-0.0098-1.4971,0.0039-2.9951-0.0117-4.4932c-0.0117-0.9639-0.5664-1.6318-1.4453-1.7891
			c-1.2188-0.2217-2.1582,0.542-2.1836,1.8184c-0.0234,1.3193-0.0078,2.6406-0.0078,3.9609c0,0.1777-0.0059,0.3545-0.002,0.5313
			c0.0117,0.4658-0.25,0.6201-0.6719,0.6182c-0.5195-0.001-0.707-0.1416-0.7109-0.626c-0.0117-1.4971,0.0059-2.9951-0.0137-4.4932
			c-0.0137-1.2754-0.9941-2.0508-2.2363-1.8008c-0.8691,0.1748-1.3828,0.8486-1.3926,1.8857
			c-0.0156,1.4482-0.002,2.8984-0.0098,4.3486c-0.0039,0.5381-0.1641,0.6855-0.6973,0.6846s-0.6914-0.1455-0.6953-0.6885
			c-0.0078-1.5146-0.0195-3.0293,0.0039-4.542c0.0215-1.3281,0.625-2.3369,1.8555-2.8662c1.2363-0.5303,2.4395-0.3955,3.4805,0.4971
			c0.3203,0.2734,0.4805,0.2549,0.7871-0.0068c1.0625-0.9053,2.2832-1.0166,3.5313-0.4746c1.2129,0.5293,1.7715,1.54,1.8008,2.8477
			C80.0952,41.127,80.0815,41.8516,80.0815,42.5752z"/>
		<path fill="#043A44" d="M110.2788,40.665c-0.0117-4.5186,3.9961-7.2041,7.5762-5.5c0.8789,0.417,1.5801,1.0459,2.1113,1.8623
			c0.207,0.3154,0.3633,0.6279-0.0586,0.9131c-0.5527,0.373-0.7891,0.3496-1.1289-0.1318
			c-1.1641-1.6504-3.0801-2.2021-4.8008-1.3857c-1.5703,0.7461-2.5352,2.6113-2.2637,4.3818
			c0.2891,1.9014,1.6172,3.3184,3.3809,3.5488c1.5,0.1953,2.6934-0.4033,3.5508-1.6074c0.4219-0.5938,0.7441-0.502,1.3027-0.0186
			c0.2461,0.2109,0.1152,0.4678-0.0273,0.6982c-1.498,2.3877-4.7832,3.1025-7.1445,1.5215
			C111.1128,43.834,110.3296,42.2246,110.2788,40.665z"/>
		<path fill="#043A44" d="M85.4526,38.7461c0-0.9648,0-1.9316,0-2.8984c0.002-0.8115,0.1211-0.9756,0.709-0.9707
			c0.5781,0.0039,0.6836,0.1563,0.6836,0.9961c0.0039,1.7217,0,3.4453,0,5.166c0,0.1777,0,0.3555,0.0059,0.5322
			c0.0117,1.0498,0.3477,1.9473,1.3281,2.4551c1.043,0.5449,2.1172,0.5205,3.1348-0.0762c0.7363-0.4316,1.1055-1.1318,1.1348-1.9688
			c0.043-1.2539,0.0293-2.5107,0.0391-3.7656c0.0039-0.8857-0.0059-1.7705,0.0059-2.6563c0.0059-0.5332,0.1777-0.6865,0.7051-0.6826
			c0.5156,0.0029,0.6816,0.1611,0.6816,0.7041c0.0059,2.0762,0.0254,4.1533-0.0039,6.2295
			c-0.0371,2.3838-1.7754,3.998-4.2363,3.9883c-2.4004-0.0107-4.1367-1.666-4.1797-4.0107
			c-0.0176-1.0127-0.0039-2.0283-0.0039-3.042C85.4546,38.7461,85.4546,38.7461,85.4526,38.7461z"/>
		<path fill="#043A44" d="M26.7227,45.7871c-0.7515,0.002-1.478-0.1152-2.1523-0.46c-0.8022-0.4102-1.3413-1.04-1.5591-1.9258
			c-0.0796-0.3213-0.0991-0.6182,0.2954-0.748c0.4219-0.1406,0.8599-0.0078,1.0166,0.3027
			c0.6934,1.3721,2.3125,1.8926,3.7109,1.1924c0.3975-0.1982,0.6938-0.4727,0.6855-0.9609c-0.0083-0.5-0.3413-0.7334-0.7539-0.8945
			c-0.5454-0.2119-1.1196-0.2959-1.6929-0.3789c-0.6079-0.0889-1.2085-0.2051-1.7671-0.4736
			c-1.248-0.5986-1.5591-2.0527-0.668-3.1162c0.2627-0.3145,0.5771-0.5664,0.9551-0.7197c1.2256-0.501,2.4507-0.5,3.6538,0.0635
			c0.7227,0.3398,1.1851,0.9258,1.4351,1.6777c0.1021,0.3076,0.1606,0.6152-0.2202,0.7803
			c-0.375,0.1641-0.9023,0.0215-1.0762-0.2754c-0.6758-1.1455-1.7935-1.5322-3.0396-1.0508
			c-0.1973,0.0762-0.3823,0.1719-0.5337,0.3213c-0.3892,0.3857-0.3125,0.8633,0.188,1.0889
			c0.4438,0.2002,0.9268,0.2666,1.4038,0.3408c0.6855,0.1064,1.3691,0.209,2.0127,0.4883c0.9194,0.4004,1.5098,1.0605,1.5269,2.0938
			c0.0161,1.0078-0.4688,1.75-1.3643,2.2197C28.1353,45.6875,27.4424,45.8027,26.7227,45.7871z"/>
		<path fill="#043A44" d="M31.7241,41.1182c0-0.6113-0.0063-1.2227,0.0029-1.834c0.0049-0.2969-0.104-0.457-0.4155-0.4561
			c-0.4824,0-0.5767-0.3076-0.5737-0.7129c0.002-0.3887,0.1118-0.6719,0.5601-0.6738c0.3413,0,0.4507-0.1836,0.4282-0.4932
			c-0.0073-0.1133-0.001-0.2256,0.001-0.3389c0.0132-0.5908,0.1455-0.7266,0.7017-0.7285c0.5596-0.001,0.6958,0.1367,0.7163,0.7207
			c0.0283,0.835,0.0283,0.835,0.8687,0.8369c0.1123,0.001,0.2261-0.001,0.3384,0.001c0.6694,0.0127,0.9521,0.4258,0.7227,1.0557
			c-0.083,0.2275-0.2554,0.3213-0.4858,0.3252c-0.3379,0.0068-0.6758,0.0137-1.0137,0.0127c-0.271,0-0.4243,0.1104-0.4229,0.3994
			c0.0068,1.2568-0.0186,2.5137,0.0264,3.7676c0.0288,0.8076,0.4292,1.1621,1.2505,1.2568
			c0.5684,0.0664,0.6875,0.1904,0.6797,0.7158c-0.0063,0.4912-0.168,0.6514-0.6753,0.6709
			c-1.4941,0.0547-2.6079-1.0449-2.6909-2.6895c-0.0313-0.6104-0.0049-1.2227-0.0049-1.8359
			C31.7329,41.1182,31.728,41.1182,31.7241,41.1182z"/>
		<path fill="#043A44" d="M45.1646,41.5332c0-1.1094-0.002-2.2197,0.0005-3.3301c0.001-0.2725-0.0337-0.5957,0.29-0.6992
			c0.335-0.1074,0.7251-0.1758,1.0039,0.1045c0.2031,0.2051,0.3486,0.1504,0.5439,0.0449c0.5972-0.3223,1.2407-0.4336,1.9126-0.3896
			c0.5005,0.0342,0.6196,0.1895,0.6255,0.7148c0.0054,0.4355-0.1704,0.6377-0.6274,0.6533
			c-1.6279,0.0537-2.3149,0.7764-2.3198,2.415c-0.0029,1.2695,0.0039,2.542-0.0039,3.8105
			c-0.0034,0.6826-0.3872,0.9463-1.0474,0.749c-0.3335-0.0996-0.3765-0.3613-0.3765-0.6484c-0.001-1.1416-0.001-2.2842-0.001-3.4248
			H45.1646L45.1646,41.5332z"/>
		<path fill="#043A44" d="M57.9424,34.9307c0-0.2285-0.0132-0.4521-0.1187-0.6592c-0.3872,0-0.7749,0-1.1602,0
			c-0.0962,0.1924-0.1138,0.3994-0.1118,0.6113c0,0.9492,0.002,1.8984-0.0039,2.8496c-0.002,0.1367,0.0532,0.3184-0.1113,0.3877
			c-0.1338,0.0566-0.2324-0.082-0.334-0.1523c-0.9556-0.6572-2.001-0.8682-3.1284-0.6162
			c-2.1074,0.4727-3.4834,2.5996-3.1611,4.8672c0.3101,2.1768,2.2002,3.709,4.3931,3.5586c2.1021-0.1426,3.7119-1.9072,3.731-4.1338
			C57.9575,39.4053,57.9424,37.167,57.9424,34.9307z M53.875,44.3936c-1.4678,0.0186-2.6958-1.2637-2.7065-2.8242
			c-0.0103-1.5869,1.208-2.9033,2.6855-2.9023c1.4556,0,2.6694,1.291,2.6885,2.8584C56.561,43.0684,55.3467,44.375,53.875,44.3936z"
			/>
		<path fill="#043A44" d="M8.4385,41.7627c-0.001-0.998,0.0015-1.9971-0.002-2.9951c-0.002-0.6709-0.1328-1.3174-0.4517-1.9082
			c-0.9092-1.6816-2.395-2.2422-4.2124-2.123c-2.1074,0.1406-3.7119,1.7744-3.751,3.8867
			c-0.0386,2.1074-0.0151,4.2197-0.0103,6.3281c0.002,0.5361,0.1685,0.6855,0.6987,0.6846c0.5269-0.002,0.6802-0.1494,0.6855-0.6982
			c0.0083-0.8545,0.0146-1.708,0-2.5605c-0.0073-0.4023,0.1245-0.5801,0.5557-0.5742c1.5137,0.0176,3.0269,0.0186,4.5405,0
			c0.436-0.0059,0.5596,0.1758,0.5518,0.5742c-0.0146,0.8379-0.0073,1.6748,0,2.5127c0.0059,0.5928,0.1543,0.7441,0.6904,0.7461
			c0.5425,0.001,0.6997-0.1543,0.7036-0.7324C8.4429,43.8555,8.439,42.8096,8.4385,41.7627z M5.5449,40.2666
			c-0.4507,0-0.9004,0-1.3506,0c-0.7559-0.001-1.5117-0.0117-2.2666,0.0039c-0.3628,0.0068-0.5435-0.1221-0.5283-0.501
			c0.0151-0.3691-0.0093-0.7412,0.0186-1.1094c0.1191-1.5723,1.2163-2.5469,2.8364-2.5371c1.6118,0.0107,2.646,0.9609,2.7666,2.5439
			C7.1436,40.2666,7.1436,40.2666,5.5449,40.2666z"/>
		<path fill="#043A44" d="M39.9438,37.1689c-1.7446-0.0654-3.3208,1.0039-3.9688,2.6914c-0.6748,1.7549-0.1694,3.7627,1.2383,4.917
			c1.332,1.0898,3.4233,1.2451,4.8501,0.3564c0.2881-0.1797,0.5508-0.3926,0.769-0.6553c0.1172-0.1416,0.1963-0.293,0.125-0.4873
			c-0.189-0.5068-0.8716-0.6797-1.2852-0.3232c-1.4639,1.2627-3.8447,0.5869-4.4229-1.2471
			c-0.1157-0.3691-0.0493-0.5449,0.3745-0.5371c0.918,0.0127,1.835,0.0029,2.7539,0.0029c0-0.001,0-0.0029,0-0.0049
			c0.9502,0,1.8999-0.001,2.8501,0.001c0.439,0,0.6475-0.2051,0.6416-0.6533C43.8442,39.1406,42.0186,37.2471,39.9438,37.1689z
			 M41.8193,40.4688c-0.6904-0.0059-1.3799-0.002-2.0708-0.0029c-0.6748-0.001-1.3491-0.0029-2.0234,0.001
			c-0.3535,0.002-0.4292-0.1514-0.2622-0.4473c0.5044-0.8965,1.2529-1.415,2.2969-1.4209c1.0659-0.0049,1.8228,0.5293,2.3384,1.4355
			C42.2769,40.3486,42.1567,40.4717,41.8193,40.4688z"/>
		<path fill="#043A44" d="M67.3862,43.1289c0-0.5791,0.0117-1.1592-0.0039-1.7383c-0.0254-1.0908-0.4082-2.0449-1.166-2.8359
			c-1.1953-1.251-3.0938-1.626-4.7246-0.9424c-1.6411,0.6885-2.6079,2.2441-2.5249,4.127c0.0698,1.6328,0.7441,2.9521,2.269,3.6514
			c1.4902,0.6846,2.9473,0.501,4.2793-0.4922c0.0977-0.0732,0.1816-0.2275,0.3281-0.1514c0.1348,0.0713,0.0742,0.2305,0.0879,0.3535
			c0.0527,0.4922,0.2012,0.5928,0.791,0.5908c0.4355-0.001,0.666-0.1807,0.6641-0.6309
			C67.3843,44.418,67.3862,43.7744,67.3862,43.1289z M63.1753,44.3594c-1.5508-0.001-2.7104-1.2305-2.6953-2.8545
			c0.0151-1.6143,1.1582-2.8105,2.6895-2.8145c1.5605-0.001,2.6934,1.2002,2.6875,2.8574
			C65.8511,43.1689,64.7144,44.3594,63.1753,44.3594z"/>
	</g>
</g>
</svg>
