<?xml version="1.0" encoding="utf-8"?>
<!-- Generator: Adobe Illustrator 16.0.0, SVG Export Plug-In . SVG Version: 6.00 Build 0)  -->
<!DOCTYPE svg PUBLIC "-//W3C//DTD SVG 1.1//EN" "http://www.w3.org/Graphics/SVG/1.1/DTD/svg11.dtd">
<svg version="1.1" id="Laag_1" xmlns="http://www.w3.org/2000/svg" xmlns:xlink="http://www.w3.org/1999/xlink" x="0px" y="0px"
	 width="14.3936px" height="14.394px" viewBox="0 0 14.3936 14.394" enable-background="new 0 0 14.3936 14.394"
	 xml:space="preserve">
<g>
	<polygon fill="#FFFFFF" points="14.2686,6.1987 8.1934,6.1987 8.1934,0.125 6.1973,0.125 6.1973,6.1987 0.125,6.1987 0.125,8.1948 
		6.1973,8.1948 6.1973,14.269 8.1934,14.269 8.1934,8.1948 14.2686,8.1948 	"/>
	<path fill="#FFFFFF" d="M8.1934,14.394H6.1973c-0.0688,0-0.125-0.0557-0.125-0.125V8.3198H0.125C0.0562,8.3198,0,8.2642,0,8.1948
		V6.1987c0-0.0688,0.0562-0.125,0.125-0.125h5.9473V0.125C6.0723,0.0562,6.1284,0,6.1973,0h1.9961
		c0.0688,0,0.125,0.0562,0.125,0.125v5.9487h5.9502c0.0693,0,0.125,0.0562,0.125,0.125v1.9961c0,0.0693-0.0557,0.125-0.125,0.125
		H8.3184v5.9492C8.3184,14.3384,8.2622,14.394,8.1934,14.394z M6.3223,14.144h1.7461V8.1948c0-0.0688,0.0562-0.125,0.125-0.125
		h5.9502V6.3237H8.1934c-0.0688,0-0.125-0.0562-0.125-0.125V0.25H6.3223v5.9487c0,0.0688-0.0562,0.125-0.125,0.125H0.25v1.7461
		h5.9473c0.0688,0,0.125,0.0562,0.125,0.125V14.144z"/>
</g>
<g>
</g>
<g>
</g>
<g>
</g>
<g>
</g>
<g>
</g>
</svg>
